<svg xmlns="http://www.w3.org/2000/svg" viewBox="0 0 800 800"><defs><style>.a{fill:#e8ecf3;}</style></defs><title>アートボード 2</title><path class="a" d="M188.13634,708.06047A165.70985,165.70985,0,0,1,35.0454,605.79215a27.41888,27.41888,0,0,0-1.416-2.91613,43.58967,43.58967,0,0,1-3.16942-7.0048c-1.14994-3.31181-28.01795-82.167-18.70875-182.24937,8.73566-93.91972,51.60754-224.92137,206.24082-315.6503a43.81244,43.81244,0,1,1,44.3426,75.5768c-73.53514,43.146-123.17454,101.30637-147.53825,172.86529a27.381,27.381,0,0,0,32.63413,35.3731,166.19667,166.19667,0,0,1,40.70577-5.05815c91.34861,0,165.66594,74.31733,165.66594,165.66594S279.485,708.06047,188.13634,708.06047Z"/><path class="a" d="M624.53905,708.06047A165.71024,165.71024,0,0,1,471.44932,605.79215a27.383,27.383,0,0,0-1.41719-2.91476,43.65509,43.65509,0,0,1-3.16888-7.00877c-1.15254-3.31866-28.02191-82.12033-18.70793-182.24814,8.73361-93.919,51.60741-224.92068,206.24-315.64893A43.81266,43.81266,0,0,1,698.74,173.54766c-73.53514,43.146-123.17441,101.30637-147.54085,172.866a27.38139,27.38139,0,0,0,32.63468,35.3731,166.19639,166.19639,0,0,1,40.70524-5.05815c91.35,0,165.66594,74.31733,165.66594,165.66594S715.889,708.06047,624.53905,708.06047Z"/></svg>