<svg xmlns="http://www.w3.org/2000/svg" viewBox="0 0 800 800"><defs><style>.a{fill:#e8ecf3;}</style></defs><title>アートボード 2</title><path class="a" d="M611.86321,91.93953A165.70985,165.70985,0,0,1,764.95414,194.20785a27.417,27.417,0,0,0,1.416,2.91613,43.59142,43.59142,0,0,1,3.16942,7.0048c1.14994,3.31181,28.01794,82.167,18.70875,182.24937-8.73566,93.91972-51.60754,224.92137-206.24082,315.6503a43.81244,43.81244,0,1,1-44.3426-75.5768C611.2,583.30567,660.8394,525.14528,685.20311,453.58636a27.381,27.381,0,0,0-32.63414-35.3731,166.19665,166.19665,0,0,1-40.70576,5.05815c-91.34861,0-165.66594-74.31733-165.66594-165.66594S520.5146,91.93953,611.86321,91.93953Z"/><path class="a" d="M175.4605,91.93953A165.71024,165.71024,0,0,1,328.55022,194.20785a27.3831,27.3831,0,0,0,1.4172,2.91476,43.65415,43.65415,0,0,1,3.16887,7.00877c1.15254,3.31866,28.02192,82.12033,18.70793,182.24814-8.73361,93.919-51.6074,224.92068-206.24,315.64893a43.81266,43.81266,0,0,1-44.34466-75.57611c73.53513-43.146,123.1744-101.30637,147.54085-172.866a27.38139,27.38139,0,0,0-32.63469-35.3731,166.19637,166.19637,0,0,1-40.70523,5.05815c-91.35,0-165.66594-74.31733-165.66594-165.66594S84.11054,91.93953,175.4605,91.93953Z"/></svg>