<svg xmlns="http://www.w3.org/2000/svg" viewBox="0 0 243.1 42.52"><defs><style>.a{fill:#1b77a9;}</style></defs><title>アートボード 1</title><path class="a" d="M11.11,0H.43A.43.43,0,0,0,0,.43V41.12a.42.42,0,0,0,.43.42h2a.42.42,0,0,0,.43-.42V22.48a.25.25,0,0,1,.25-.26h8A11.11,11.11,0,0,0,11.11,0Zm0,19.32h-8a.25.25,0,0,1-.25-.25V3.15a.25.25,0,0,1,.25-.25h8a8.21,8.21,0,0,1,0,16.42Zm48.94,9.44L43.69,19.32a.26.26,0,0,1-.13-.19.24.24,0,0,1,.08-.21A11.11,11.11,0,0,0,35.74,0H25.06a.43.43,0,0,0-.43.43V41.12a.42.42,0,0,0,.43.42h2a.42.42,0,0,0,.43-.42V22.48a.25.25,0,0,1,.26-.26h7a.25.25,0,0,1,.22.13l11.53,20a.43.43,0,0,0,.32.21.48.48,0,0,0,.35-.12l13-13a.41.41,0,0,0,.12-.35A.44.44,0,0,0,60.05,28.76ZM36,19.27l-4.2-2.43a.26.26,0,0,1-.13-.18.27.27,0,0,1,.08-.22L34.18,14a.26.26,0,0,1,.18-.07h0a.23.23,0,0,1,.18.13l2.73,4.72a.24.24,0,0,1,0,.23.29.29,0,0,1-.19.15,9.53,9.53,0,0,1-1,.1l0,.09V19.3A.24.24,0,0,1,36,19.27Zm-8.35-3.05a.26.26,0,0,1-.16-.24V3.15a.25.25,0,0,1,.26-.25h8a8.2,8.2,0,0,1,5.14,14.61.28.28,0,0,1-.29,0l-1-.56a.2.2,0,0,1-.09-.09L35.32,9.57A.47.47,0,0,0,35,9.36h0a.41.41,0,0,0-.3.12L28,16.16A.25.25,0,0,1,27.69,16.22ZM38.26,22a.24.24,0,0,1,.17-.14,11.56,11.56,0,0,0,2.24-.83l.11,0a.28.28,0,0,1,.13,0L55.52,29.5a.26.26,0,0,1,.13.18.29.29,0,0,1-.07.22l-7.94,7.94a.27.27,0,0,1-.21.07.26.26,0,0,1-.19-.13l-9-15.53A.26.26,0,0,1,38.26,22ZM27.79,17.89a.27.27,0,0,1,.12,0l1.6.93a.24.24,0,0,1,.12.28.26.26,0,0,1-.25.19H27.79a.25.25,0,0,1-.26-.25v-.93a.26.26,0,0,1,.13-.22A.28.28,0,0,1,27.79,17.89Zm50.09,5.25h-3v4.34H73V15H77.9a3.83,3.83,0,0,1,3.92,4.05A3.75,3.75,0,0,1,77.88,23.14Zm-.43-6.55H74.82v5h2.67A2.37,2.37,0,0,0,80,19.09,2.38,2.38,0,0,0,77.45,16.59ZM91.29,27.48,88.54,22.3H85.66v5.18H83.88V15h4.78c2.31,0,4,1.24,4,3.49A3.22,3.22,0,0,1,90.29,22l3.14,5.47ZM88.36,16.57H85.68v4.28h2.7a2.13,2.13,0,0,0,2.4-2.25C90.78,17.26,89.72,16.57,88.36,16.57Zm17.58.7a1,1,0,0,1-.29-.05c-.39,6.25-4.45,9.62-9.42,10.39V26.17c4.71-1.06,7.39-4.2,7.75-8.73h-9.4V16h10a.66.66,0,0,1,0-.14,1.41,1.41,0,1,1,1.41,1.42Zm0-2.17a.75.75,0,1,0,.75.75A.74.74,0,0,0,105.94,15.1Zm3.42,12v-11h11.21v11ZM119,17.59h-8.15v8.13H119Zm5.72,10V26.17c4.72-1.06,7.4-4.2,7.75-8.73H123V16h11.23v.19C134.21,23.12,130,26.8,124.76,27.61Zm10.8-.47V25.8h4.56V19.24h-3.81V17.9h9.38v1.34h-4.06V25.8h4.84v1.35Zm13.5-4.53a31.33,31.33,0,0,0-1.24-5.06h1.46a37.76,37.76,0,0,1,1.28,5.06Zm1.19,5.2V26.42c5-1,6.6-4.18,6.68-8.85v-.16h1.57v.18C158.35,23.41,155.84,26.86,150.25,27.81Zm2.6-5.37a39.15,39.15,0,0,0-1.16-5h1.47a34.08,34.08,0,0,1,1.18,5ZM161,21.37V19.93a57.5,57.5,0,0,1,6,.57V22C165.2,21.71,162.68,21.43,161,21.37Zm.12-4.13V15.8c1.81.07,4.23.3,6,.55v1.5C165.35,17.59,162.83,17.31,161.1,17.24Zm.23,10.34V26.09c6.19-.28,9.17-2.48,9.83-8.16h1.62C172.13,24.8,168,27.43,161.33,27.58Zm13.88-.16V26.06h8.06V23h-7.85V21.65h7.85V19h-8.06V17.6h9.58v9.83ZM195.83,20c-.12,4.56-2.33,7-6.8,7.81V26.31c3.38-.79,5.06-2.59,5.18-6.32h-6.5V18.52h6.5V15.35h1.62v3.17h4.51V20Zm5,8v-1.8c.91-1,2.07-2.47,2.07-6.82V15.72h1.5v3.52C204.45,24.59,202.78,26.64,200.88,28Zm5.62-.3V15.71H208v10c2.5-.78,3.72-3.11,4-6.35h1.53C213.16,24.24,211,27.06,206.5,27.65Zm11.63-7.88v8.32h-1.44V19.77H215V18.44h1.65V14.85h1.44v3.59h1.57v1.33Zm3.06,8.12-.44-1.33c1.16,0,1.22-.07,1.22-3.38h-.75a8.18,8.18,0,0,1-1.74,4.91l-1.18-1a5.56,5.56,0,0,0,1.58-3.94H219V21.9h1c0-.37,0-.59,0-.94h1.33c0,.35,0,.57,0,.94h2C223.29,26.9,223.22,27.89,221.19,27.89Zm3.44-7.37-.44-1.36c1.59,0,1.81-.08,1.81-1.81h-2.3A4.83,4.83,0,0,1,221,20.72l-1.15-1a3.42,3.42,0,0,0,2.25-2.36H220.5V16.07h2a9.54,9.54,0,0,0,.14-1.22h1.49a9.7,9.7,0,0,1-.12,1.22h3.44C227.42,19.81,227.07,20.43,224.63,20.52Zm1.31,7.37-.44-1.33c1.14,0,1.22-.06,1.22-2.34v-1H226a7.9,7.9,0,0,1-1.73,4.9l-1.12-1a5.85,5.85,0,0,0,1.51-3.94h-1V21.9h1.09c0-.37,0-.59,0-.94h1.34c0,.35,0,.57,0,.94H228v1.35C228,27.17,228,27.89,225.94,27.89Zm16.51-8a17.54,17.54,0,0,1-6-3.79,15.61,15.61,0,0,1-6.08,4l-.66-1.44c3.19-1,5.46-2.78,6.09-3.86h1.16c.75,1,2.73,2.45,6.17,3.71Zm-1.22,8.17c-.35-.46-.68-.87-1-1.24a72.72,72.72,0,0,1-9.19.87l-.26-1.35c.45,0,.83,0,1.25,0a12.48,12.48,0,0,0,2.29-3h-3.75V22.05h11.67v1.28H236a12.1,12.1,0,0,1-2.09,2.92,47.14,47.14,0,0,0,5.27-.51,11.53,11.53,0,0,0-1.38-1.31l1.17-.79a35.09,35.09,0,0,1,3.27,3.23Zm-8.46-7.59V19.22h7.61v1.27Z"/></svg>