<svg xmlns="http://www.w3.org/2000/svg" viewBox="0 0 303.5167 303.5167"><defs><style>.a{fill:none;stroke-width:8px;}.a,.b{stroke:#fff;stroke-miterlimit:10;}.b{fill:#fff;}</style></defs><title>play</title><path class="a" d="M151.75835,299.5167C70.24982,299.5167,4,233.26687,4,151.75835S70.24982,4,151.75835,4,299.5167,70.24982,299.5167,151.75835,233.26687,299.5167,151.75835,299.5167Zm0-289.72225a141.9639,141.9639,0,1,0,141.9639,141.9639A142.0702,142.0702,0,0,0,151.75835,9.79445Z"/><path class="a" d="M117.57112,213.17947a2.72537,2.72537,0,0,1-1.44861-.38629,2.88181,2.88181,0,0,1-1.44861-2.51093V93.23446a2.88183,2.88183,0,0,1,1.44861-2.51093,3.0783,3.0783,0,0,1,2.89722,0L220.326,149.24742a2.90046,2.90046,0,0,1,0,5.02185l-101.30622,58.5239A4.04752,4.04752,0,0,1,117.57112,213.17947Zm2.89722-114.92316V205.26039l92.61455-53.502Z"/><polygon class="b" points="124.361 198.841 124.742 105.088 205.363 151.634 124.361 198.841"/></svg>